<?xml version="1.0" encoding="UTF-8"?>
<svg version="1.1" xmlns="http://www.w3.org/2000/svg" xmlns:xlink="http://www.w3.org/1999/xlink" width="100%" height="100%" viewBox="-432 -432 864 864">
 <title>Comparison of several satellite navigation system orbits</title>
 <switch>
  <desc systemLanguage="es">Comparación de las órbitas geoestacionaria, GPS, GLONASS, Galileo y COMPASS (satélites de órbita media), Estación Espacial Internacional, Telescopio Espacial Hubble, Constelación Iridium y órbita cementerio con los cinturones de radiación de Van Allen y el tamaño nominal de la tierra, ilustración de CMG Lee. Bitmap de la Tierra http://commons.wikimedia.org/wiki/File:North_pole_february_ice-pack_1978-2002.png by Geo Swan. La órbita de la Luna es cerca de 9 veces más grande (en radio y largo) que la órbita geoestacionaria. Esta animación se mueve a 1 hora por segundo. En el archivo SVG, se puede posicionar el mouse sobre una órbita o su nombre para resaltarla y hacer clic para ir a su respectivo articulo en la Wikipedia.</desc>
  <desc systemLanguage="fr">Comparaison des orbites géostationnaire, GPS, GLONASS, Galileo et COMPASS (satellites d'orbite intermédiare), Station Spatiale Internationale, Hubble, Iridium et orbite de rebut avec les ceintures de radiation de Van Allen et la taille nominale de la Terre, illustration de CMG Lee. Bitmap de la Terre Bitmap de la Tierra http://commons.wikimedia.org/wiki/File:North_pole_february_ice-pack_1978-2002.png par Geo Swan. L'orbite de la Lune est près de 9 fois plus grande que l'orbite géostationnaire. Cette animation progresse à un rythme d'une heure par seconde. Au format SVG, il est possible de positionner son curseur sur une orbite ou son nom pour la mettre en surbrillance, et de la cliquer pour accéder à son article Wikipédia.</desc>
  <desc>Comparison of geostationary, GPS, GLONASS, Galileo and COMPASS (medium earth orbit satellites), International Space Station, Hubble Space Telescope, Iridium Constellation and graveyard orbits with the Van Allen radiation belts and the nominal size of the earth, drawn by CMG Lee. Earth bitmap is http://commons.wikimedia.org/wiki/File:North_pole_february_ice-pack_1978-2002.png by Geo Swan. The Moon's orbit is around 9 times larger (in radius and length) than geostationary orbit. The animation runs at 1 hour per second. In the SVG file, hover over an orbit or its label to highlight it, and click to load its Wikipedia article.</desc>
 </switch>
 <style type="text/css">
  #main { font-family:Helvetica,Arial,sans-serif; font-size:40px; text-anchor:end;
          stroke-opacity:0.75; stroke-width:2; fill:none; cursor:default; }
  #main:hover            { stroke-opacity:0.2; fill-opacity:0.2; }
  .nofade, .active:hover { stroke-opacity:1;   fill-opacity:1;   }
  #vab { font-style:italic; font-weight:bold; font-size:24px; text-anchor:middle; stroke:none; }
  @keyframes         rot { from { transform:         rotate(360deg); }
                           to   { transform:         rotate(0deg);   } }
  @-moz-keyframes    rot { from { -moz-transform:    rotate(360deg); }
                           to   { -moz-transform:    rotate(0deg);   } }
  @-webkit-keyframes rot { from { -webkit-transform: rotate(360deg); }
                           to   { -webkit-transform: rotate(0deg);   } }
  .rot_sun { animation:         rot 8766s  linear infinite;
             -moz-animation:    rot 8766s  linear infinite;
             -webkit-animation: rot 8766s  linear infinite; }
  .rot_gra { animation:         rot 24.19s linear infinite;
             -moz-animation:    rot 24.19s linear infinite;
             -webkit-animation: rot 24.19s linear infinite; }
  .rot_geo { animation:         rot 23.93s linear infinite;
             -moz-animation:    rot 23.93s linear infinite;
             -webkit-animation: rot 23.93s linear infinite; }
  .rot_gal { animation:         rot 14.37s linear infinite;
             -moz-animation:    rot 14.37s linear infinite;
             -webkit-animation: rot 14.37s linear infinite; }
  .rot_com { animation:         rot 12.62s linear infinite;
             -moz-animation:    rot 12.62s linear infinite;
             -webkit-animation: rot 12.62s linear infinite; }
  .rot_gps { animation:         rot 11.97s linear infinite;
             -moz-animation:    rot 11.97s linear infinite;
             -webkit-animation: rot 11.97s linear infinite; }
  .rot_glo { animation:         rot 11.25s linear infinite;
             -moz-animation:    rot 11.25s linear infinite;
             -webkit-animation: rot 11.25s linear infinite; }
  .rot_iri { animation:         rot  1.7s  linear infinite;
             -moz-animation:    rot  1.7s  linear infinite;
             -webkit-animation: rot  1.7s  linear infinite; }
  .rot_hub { animation:         rot  1.6s  linear infinite;
             -moz-animation:    rot  1.6s  linear infinite;
             -webkit-animation: rot  1.6s  linear infinite; }
  .rot_iss { animation:         rot  1.5s  linear infinite;
             -moz-animation:    rot  1.5s  linear infinite;
             -webkit-animation: rot  1.5s  linear infinite; }
  .rot_min { animation:         rot  1s    linear infinite;
             -moz-animation:    rot  1s    linear infinite;
             -webkit-animation: rot  1s    linear infinite; }
  .rot_hr  { animation:         rot  12s   linear infinite;
             -moz-animation:    rot  12s   linear infinite;
             -webkit-animation: rot  12s   linear infinite; }
 </style>
 <defs>
  <radialGradient id="gradient_shade" cx="50%" cy="50%" r="67%" fx="33%" fy="33%">
   <stop offset="10%" stop-color="#000000" stop-opacity="0"/>
   <stop offset="99%" stop-color="#000000" stop-opacity="0.75"/>
  </radialGradient>
  <radialGradient id="gradient_vab" cx="50%" cy="50%" r="50%" fx="50%" fy="50%">
   <stop offset="7.4%" stop-color="#ff9900" stop-opacity="0"/>
   <stop offset="9.4%" stop-color="#ff9900" stop-opacity="0.3"/>
   <stop offset="10.4%" stop-color="#ff9900" stop-opacity="0.3"/>
   <stop offset="12.4%" stop-color="#ff9900" stop-opacity="0"/>
   <stop offset="19.4%" stop-color="#9999ff" stop-opacity="0"/>
   <stop offset="21.4%" stop-color="#9999ff" stop-opacity="0.2"/>
   <stop offset="66.4%" stop-color="#9999ff" stop-opacity="0"/>
  </radialGradient>
  <path id="km" d="M 10 0 V -10 M 20 0 V -10 M 30 0 V -10 M 40 0 V -10 M 50 0 V -20 M 60 0 V -10 M 70 0 V -10 M 80 0 V -10 M 90 0 V -10 M 100 0 V -30" fill="none"/>
  <path id="mi" d="M 16.1 0 V 10 M 32.2 0 V 10 M 48.3 0 V 10 M 64.4 0 V 10 M 80.5 0 V 20 M 96.6 0 V 10 M 112.7 0 V 10 M 128.8 0 V 10 M 144.9 0 V 10 M 161 0 V 30" fill="none"/>
  <circle id="satellite" cx="0" cy="0" r="3"/>
  <path id="tick" d="M 0,-50 V -60"/>
  <g id="tick_3" stroke="#cccccc">
   <use xlink:href="#tick" stroke="#999999"/>
   <use xlink:href="#tick" transform="rotate(30)"/>
   <use xlink:href="#tick" transform="rotate(60)"/>
  </g>
  <clipPath id="clip_earth"><ellipse cx="0" cy="0" rx="100" ry="100"/></clipPath>
 </defs>
 <circle cx="0" cy="0" r="99999" fill="#ffffff"/>
 <g id="main">
  <g id="vab" class="active">
   <circle cx="0" cy="0" r="1000" fill="url(#gradient_vab)"/>
   <switch>
    <a systemLanguage="es" target="info" xlink:href="http://es.wikipedia.org/wiki/Cinturones_de_Van_Allen">
     <text x="-6" y="-117" fill="#cc6600"><tspan>Cinturón   de Van</tspan><tspan x="10" y="-94">Allen   interior</tspan></text>
     <text x="100" y="358" fill="#9999cc"><tspan>Cinturón de Van</tspan><tspan x="100" y="380">Allen exterior</tspan></text>
    </a>
    <a systemLanguage="fr" target="info" xlink:href="http://fr.wikipedia.org/wiki/Ceinture_de Van_Allen">
     <text x="-6" y="-117" fill="#cc6600"><tspan>Ceinture de Van</tspan><tspan x="10" y="-94">Allen intérieure</tspan></text>
     <text x="100" y="358" fill="#9999cc"><tspan>Ceinture de Van</tspan><tspan x="100" y="380">Allen extérieure</tspan></text>
    </a>
    <a target="info" xlink:href="http://wikipedia.org/wiki/Van_Allen_radiation_belt">
     <text x="-6" y="-109" fill="#cc6600"><tspan>Inner   Van</tspan><tspan x="-6" y="-86">Allen   belt</tspan></text>
    </a>
   </switch>
  </g>
  <g id="grave" class="active" stroke="#cc9999" fill="#cc9999">
   <ellipse cx="0" cy="0" rx="425" ry="425" fill="none"/>
   <g class="rot_gra"><use xlink:href="#satellite" transform="translate(0,-425)"/></g>
   <switch>
    <a systemLanguage="es" target="info" xlink:href="http://es.wikipedia.org/wiki/%C3%93rbita_cementerio">
     <path d="M 0 -425 H 115"/>
     <text x="110" y="-390" text-anchor="start" stroke="none"><tspan>Órbita cementerio</tspan><tspan x="230" y="-360" font-size="28">(GEO+300 km)</tspan></text>
    </a>
    <a systemLanguage="fr" target="info" xlink:href="https://fr.wikipedia.org/wiki/Orbite_de_rebut">
     <path d="M 0 -425 H 115"/>
     <text x="110" y="-390" text-anchor="start" stroke="none"><tspan>Orbite de rebut</tspan><tspan x="230" y="-360" font-size="28">(GEO+300 km)</tspan></text>
    </a>
    <a target="info" xlink:href="http://wikipedia.org/wiki/Graveyard_orbit">
     <path d="M 0 -425 H 150"/>
     <text x="150" y="-400" text-anchor="start" stroke="none"><tspan>Graveyard orbit</tspan><tspan x="230" y="-366" font-size="28">(GEO+300 km)</tspan></text>
    </a>
   </switch>
  </g>
  <g id="geo" class="active" stroke="#666666" fill="#666666">
   <ellipse cx="0" cy="0" rx="422" ry="422" fill="none"/>
   <g class="rot_geo"><use xlink:href="#satellite" transform="translate(0,-422)"/><path d="M 0,0 V -422" stroke-dasharray="1,4"/></g>
   <switch>
    <a systemLanguage="es" target="info" xlink:href="http://es.wikipedia.org/wiki/%C3%93rbita_geoestacionaria">
     <path d="M 0 -422 H -215"/>
     <text x="-215" y="-395" text-anchor="end" stroke="none"><tspan>Órbita Geo-</tspan><tspan x="-210" y="-365">estacionaria</tspan></text>
    </a>
    <a systemLanguage="fr" target="info" xlink:href="https://fr.wikipedia.org/wiki/Orbite_g%C3%A9ostationnaire">
     <path d="M 0 -422 H -215"/>
     <text x="-215" y="-395" text-anchor="end" stroke="none"><tspan>Orbite géo-</tspan><tspan x="-210" y="-365">stationnaire</tspan></text>
    </a>
    <a target="info" xlink:href="http://wikipedia.org/wiki/Geostationary_orbit">
     <path d="M 0 -422 H -175"/>
    </a>
   </switch>
  </g>
  <g id="galileo" class="active" stroke="#009999" fill="#009999">
   <ellipse cx="0" cy="0" rx="296" ry="296" fill="none"/>
   <g class="rot_gal"><use xlink:href="#satellite" transform="translate(0,-296)"/></g>
   <switch>
    <a systemLanguage="es" target="info" xlink:href="http://es.wikipedia.org/wiki/Galileo_(navegaci%C3%B3n_por_sat%C3%A9lite)">
     <path d="M 0 -296 H -145"/>
    </a>
    <a systemLanguage="fr" target="info" xlink:href="https://fr.wikipedia.org/wiki/Galileo_(syst%C3%A8me_de_positionnement)">
     <path d="M 0 -296 H -145"/>
    </a>
    <a target="info" xlink:href="http://wikipedia.org/wiki/Galileo_(satellite_navigation)">
     <path d="M 0 -296 H -145"/>
    </a>
   </switch>
  </g>
  <g id="compass" class="active" stroke="#cc9900" fill="#cc9900">
   <ellipse cx="0" cy="0" rx="276" ry="276" fill="none"/>
   <g class="rot_com"><use xlink:href="#satellite" transform="translate(0,-276)"/></g>
   <switch>
    <a systemLanguage="es" target="info" xlink:href="http://es.wikipedia.org/wiki/Beidou">
     <path d="M 0 -276 H 215"/>
     <text x="215" y="-295" text-anchor="start" stroke="none"><tspan>COMPASS</tspan><tspan x="217" y="-270" font-size="28">Satélites MEO</tspan></text>
    </a>
    <a systemLanguage="fr" target="info" xlink:href="https://fr.wikipedia.org/wiki/Beidou">
     <path d="M 0 -276 H 215"/>
     <text x="215" y="-295" text-anchor="start" stroke="none"><tspan>COMPASS</tspan><tspan x="217" y="-270" font-size="28">Satellites MEO</tspan></text>
    </a>
    <a target="info" xlink:href="http://wikipedia.org/wiki/Compass_navigation_system">
     <path d="M 0 -276 H 215"/>
     
    </a>
   </switch>
  </g>
  <g id="gps" class="active" stroke="#0000ff" fill="#0000ff">
   <ellipse cx="0" cy="0" rx="266" ry="266" fill="none"/>
   <g class="rot_gps"><use xlink:href="#satellite" transform="translate(0,-266)"/></g>
   <switch>
    <a systemLanguage="es" target="info" xlink:href="http://es.wikipedia.org/wiki/GPS">
     <path d="M 0 -266 H -145"/>
    </a>
    <a systemLanguage="fr" target="info" xlink:href="http://fr.wikipedia.org/wiki/GPS_(assistant_de_navigation)">
     <path d="M 0 -266 H -145"/>
    </a>
    <a target="info" xlink:href="http://wikipedia.org/wiki/Global_Positioning_System">
     <path d="M 0 -266 H -145"/>
    </a>
   </switch>
  </g>
  <g id="glonass" class="active" stroke="#ff0000" fill="#ff0000">
   <ellipse cx="0" cy="0" rx="255" ry="255" fill="none"/>
   <g class="rot_glo"><use xlink:href="#satellite" transform="translate(0,-255)"/></g>
   <switch>
    <a systemLanguage="es" target="info" xlink:href="http://es.wikipedia.org/wiki/GLONASS">
     <path d="M 0 -255 H 215"/>
    </a>
    <a systemLanguage="fr" target="info" xlink:href="http://fr.wikipedia.org/wiki/GLONASS">
     <path d="M 0 -255 H 215"/>
    </a>
    <a target="info" xlink:href="http://wikipedia.org/wiki/GLONASS">
     <path d="M 0 -255 H 215"/>
    </a>
   </switch>
  </g>
  <g id="iridium" class="active" stroke="#660099" fill="#660099">
   <ellipse cx="0" cy="0" rx="71.8" ry="71.8" fill="none"/>
   <g class="rot_iri"><use xlink:href="#satellite" transform="translate(0,-71.8)"/></g>
   <switch>
    <a systemLanguage="es" target="info" xlink:href="http://es.wikipedia.org/wiki/Iridium">
     <path d="M 0 -71.8 H -80"/>
    </a>
    <a systemLanguage="fr" target="info" xlink:href="https://fr.wikipedia.org/wiki/Iridium_(t%C3%A9l%C3%A9phonie_par_satellite)">
     <path d="M 0 -71.8 H -80"/>
    </a>
    <a target="info" xlink:href="http://wikipedia.org/wiki/Iridium_satellite_constellation">
     <path d="M 0 -71.8 H -80"/>
    </a>
   </switch>
  </g>
  <g id="iss" class="active" stroke="#ff00cc" fill="#ff00cc">
   <ellipse cx="0" cy="0" rx="67.5" ry="67.5" fill="none"/>
   <g class="rot_iss"><use xlink:href="#satellite" transform="translate(0,67.5)"/></g>
   <switch>
    <a systemLanguage="es" target="info" xlink:href="http://es.wikipedia.org/wiki/Estaci%C3%B3n_Espacial_Internacional">
     <path d="M 0 67.5 H 80"/>
    </a>
    <a systemLanguage="fr" target="info" xlink:href="https://fr.wikipedia.org/wiki/Station_spatiale_internationale">
     <path d="M 0 67.5 H 80"/>
    </a>
    <a target="info" xlink:href="http://wikipedia.org/wiki/International_Space_Station">
     <path d="M 0 67.5 H 80"/>
    </a>
   </switch>
  </g>
  <g id="hst" class="active" stroke="#00cc00" fill="#00cc00">
   <ellipse cx="0" cy="0" rx="69.4" ry="69.4" fill="none"/>
   <g class="rot_hub"><use xlink:href="#satellite" transform="translate(0,-69.4)"/></g>
   <switch>
    <a systemLanguage="es" target="info" xlink:href="http://es.wikipedia.org/wiki/Telescopio_espacial_Hubble">
     <path d="M 0 -69.4 H 80"/>
    </a>
    <a systemLanguage="fr" target="info" xlink:href="https://fr.wikipedia.org/wiki/Hubble_(t%C3%A9lescope_spatial)">
     <path d="M 0 -69.4 H 80"/>
    </a>
    <a target="info" xlink:href="http://wikipedia.org/wiki/Hubble_Space_Telescope">
     <path d="M 0 -69.4 H 80"/>
    </a>
   </switch>
  </g>
  <g class="nofade" font-size="24" text-anchor="middle" stroke="#000000" stroke-width="1" fill="#000000">
   <switch>
    <text systemLanguage="es" x="-390" y="-95" font-weight="bold" text-anchor="start" stroke="none"><tspan>Radio de</tspan><tspan x="-390" y="-70">la órbita</tspan></text>
    <text systemLanguage="fr" x="-390" y="-95" font-weight="bold" text-anchor="start" stroke="none"><tspan>Rayon de</tspan><tspan x="-390" y="-70">l'orbite</tspan></text>
   </switch>
   <path d="M 0 0 H -490"/>
   <use xlink:href="#km" transform="translate(-100,0)"/>
   <use xlink:href="#km" transform="translate(-200,0)"/>
   <use xlink:href="#km" transform="translate(-300,0)"/>
   <use xlink:href="#km" transform="translate(-400,0)"/>
   <use xlink:href="#km" transform="translate(-500,0)"/>
   
   
   
   
   <use xlink:href="#mi" transform="translate(-161,0)"/>
   <use xlink:href="#mi" transform="translate(-322,0)"/>
   <use xlink:href="#mi" transform="translate(-483,0)"/>
   
   
   <g transform="translate(64,0)">
    <path d="M 0 0 H 483"/>
    <use xlink:href="#km"/>
    <use xlink:href="#km" transform="translate(100,0)"/>
    <use xlink:href="#km" transform="translate(200,0)"/>
    <use xlink:href="#km" transform="translate(300,0)"/>
    
    
    
    <use xlink:href="#mi"/>
    <use xlink:href="#mi" transform="translate(161,0)"/>
    <use xlink:href="#mi" transform="translate(322,0)"/>
    
    
   </g>
   <path d="M 0 0 V -432 M 0 -51 H 10 M 0 -81 H 10 M 0 -106 H 10 M 0 -128 H 10 M 0 -149 H 20 M 0 -168 H 10 M 0 -186 H 10 M 0 -203 H 10 M 0 -220 H 10 M 0 -236 H 30 M 0 -251 H 10 M 0 -266 H 10 M 0 -281 H 10 M 0 -295 H 10 M 0 -309 H 20 M 0 -322 H 10 M 0 -336 H 10 M 0 -349 H 10 M 0 -362 H 10 M 0 -374 H 30 M 0 -387 H 10 M 0 -399 H 10 M 0 -411 H 10 M 0 -423 H 10"/>
   <path d="M 0 69 H -10 M 0 78 H -10 M 0 89 H -20 M 0 102 H -10 M 0 118 H -10 M 0 139 H -10 M 0 165 H -10 M 0 200 H -30 M 0 247 H -10 M 0 312 H -10 M 0 408 H -10 M 0 0 V 432 M 0 66 H 10 M 0 71 H 10 M 0 77 H 10 M 0 83 H 20 M 0 90 H 10 M 0 98 H 10 M 0 107 H 10 M 0 117 H 10 M 0 129 H 30 M 0 143 H 10 M 0 160 H 10 M 0 179 H 10 M 0 202 H 10 M 0 230 H 20 M 0 264 H 10 M 0 306 H 10 M 0 359 H 10 M 0 427 H 10"/>

   <g id="clock" transform="translate(360,360) scale(-1,1)" stroke-width="2" stroke="#999999">
    <use xlink:href="#tick_3"/>
    <use xlink:href="#tick_3" transform="rotate(90)"/>
    <use xlink:href="#tick_3" transform="rotate(180)"/>
    <use xlink:href="#tick_3" transform="rotate(270)"/>
    <path class="rot_min" d="M 0,0 V -40"/>
    <path class="rot_hr" d="M 0,0 V -20"/>
   </g>
  </g>
 </g>
 <g id="earth">
  <ellipse cx="0" cy="0" rx="64.28" ry="64.28" fill="#0066ff" stroke="#66ccff"/>
  <g class="rot_geo">
   <path transform="scale(0.6378)" fill="#ffcc00" clip-path="url(#clip_earth)" d="M -15,-22 C -18,-28 -9,-20 -13,-28 -9,-30 -12,-31 -6,-34 -2,-36 -9,-35 -3,-43 2,-38 -6,-34 -2,-31 -3,-38 20,-31 8,-41 9,-53 12,-47 10,-42 20,-56 19,-43 23,-50 28,-50 21,-54 28,-55 28,-50 29,-43 35,-46 26,-54 36,-44 35,-56 51,-65 53,-49 59,-52 59,-62 62,-61 68,-59 69,-57 67,-46 74,-52 76,-58 70,-55 76,-63 79,-52 76,-58 75,-50 62,-41 76,-43 70,-40 62,-29 77,-29 80,-23 84,-25 99,-19 76,-11 77,1 71,-11 71,6 67,23 64,12 63,20 79,17 64,12 74,7 81,11 79,22 81,31 72,33 57,32 59,36 95,34 79,22 85,19 100,37 82,45 108,48 101,68 114,55 110,67 111,71 113,85 96,100 85,98 66,99 70,87 52,79 60,92 55,80 41,77 28,102 13,85 10,74 11,61 35,48 34,53 49,48 46,45 46,40 60,38 53,29 49,26 51,40 43,34 46,25 49,26 49,21 44,21 45,23 42,22 42,22 43,24 44,26 34,26 44,31 43,34 38,39 49,36 41,40 22,36 32,42 39,41 35,48 44,46 34,46 44,41 24,40 23,50 23,55 16,61 14,50 24,45 21,44 16,44 14,40 25,37 19,30 22,26 19,35 24,31 33,24 21,24 20,17 18,18 31,35 20,27 20,32 13,28 16,24 16,19 12,14 22,10 26,13 22,5 23,2 26,-2 12,-1 23,-3 16,-3 16,-8 10,-10 8,-14 14,-12 10,-15 7,-16 10,-22 3,-19 -7,-26 -6,-17 -15,-22  M -26,-30 C -28,-14 -24,-35 -15,-17 -16,-7 -24,-14 -22,-5 -28,8 -21,7 -18,3 -13,9 -29,11 -19,11 -23,18 -23,8 -24,16 -31,7 -36,12 -32,20 -36,22 -36,29 -31,22 -29,28 -25,9 -23,25 -20,31 -23,35 -22,42 -35,36 -11,39 -34,33 -22,37 -36,34 -28,40 -41,39 -29,38 -37,37 -41,39 -41,34 -46,39 -59,32 -56,43 -60,40 -60,35 -54,37 -62,29 -61,11 -87,28 -69,32 -64,42 -79,30 -71,43 -82,50 -70,50 -72,56 -56,58 -67,61 -53,71 -48,86 -42,78 -41,90 -38,96 -14,102 -19,107 -20,110 -30,110 -28,114 -32,121 -34,121 -51,117 -51,122 -67,125 -77,114 -66,127 -89,115 -93,112 -88,122 -105,106 -101,116 -116,108 -106,120 -105,122 -126,108 -124,92 -111,98 -104,88 -109,102 -86,84 -94,66 -87,70 -88,58 -81,53 -79,62 -74,57 -72,51 -74,52 -76,53 -80,40 -76,38 -77,29 -79,25 -79,10 -75,13 -74,10 -71,6 -66,1 -74,5 -73,7 -75,8 -74,-0 -64,0 -62,-6 -46,-15 -59,0 -31,-15 -24,-21 -30,-23 -26,-30  M 13,-141 C -15,-128 24,-122 23,-109 28,-109 25,-120 33,-114 40,-109 38,-108 33,-109 49,-99 48,-108 53,-103 73,-96 58,-108 81,-94 90,-96 82,-102 87,-107 73,-122 59,-116 44,-131 33,-133 42,-142 13,-141  M 12,-106 C 19,-102 27,-101 29,-97 42,-98 29,-95 40,-92 42,-100 25,-100 33,-104 30,-105 26,-108 21,-108 16,-103 19,-112 7,-111 2,-111 19,-107 12,-106  M 108,31 C 115,25 114,33 120,37 121,39 123,43 119,45 111,49 117,41 111,44 108,43 109,40 110,37 110,37 112,34 108,31  M 12,-52 C 11,-54 13,-57 15,-58 16,-61 21,-61 25,-56 23,-55 14,-60 13,-50 7,-48 7,-53 12,-52  M 43,-81 C 40,-73 48,-71 42,-69 44,-62 49,-69 48,-71 45,-77 59,-69 48,-76 53,-76 47,-83 43,-81  M 48,-86 C 50,-82 48,-86 55,-82 65,-82 58,-86 61,-85 62,-93 58,-81 56,-90 54,-89 59,-84 48,-86  M 55,-77 C 55,-72 57,-73 60,-72 63,-71 68,-71 71,-68 74,-74 67,-83 63,-81 53,-81 63,-76 55,-77  M -21,-3 C -22,-5 -13,-1 -15,-0 -14,7 -16,8 -18,-1 -21,2 -16,3 -22,5 -27,0 -22,0 -21,-3  M -43,-139 C -45,-139 -49,-137 -50,-139 -42,-142 -41,-150 -30,-148 -31,-145 -37,-147 -43,-139  M -42,-132 C -45,-129 -50,-134 -56,-131 -59,-127 -54,-142 -46,-136 -52,-133 -45,-134 -42,-132  M -15,10 C -16,17 -11,18 -21,24 -28,8 -19,23 -18,13 -21,7 -17,6 -15,10  M 12,36 C 11,29 13,33 17,36 23,38 16,39 15,42 14,35 15,37 12,36  M -52,-54 C -55,-50 -61,-47 -60,-50 -62,-54 -59,-48 -52,-54  M -8,14 C -17,10 -1,3 2,9 3,33 -10,22 -10,32 -18,30 -10,20 -8,14  M 42,-62 C 41,-59 38,-62 38,-60 38,-62 40,-63 42,-62  M 57,-56 C 54,-57 53,-59 53,-54 58,-54 56,-53 57,-56  M 24,-144 C 21,-145 15,-142 16,-145 22,-153 32,-137 24,-144  M 69,-84 C 75,-77 76,-75 80,-69 81,-74 72,-83 69,-84  M -61,53 C -57,56 -52,61 -54,57 -56,53 -60,50 -61,53  M 80,-69 C 78,-71 78,-49 81,-48 81,-53 85,-59 80,-69  M -66,38 C -62,36 -57,56 -60,50 -65,40 -60,45 -66,38  M 12,41 C 14,40 13,38 12,36 9,35 10,42 12,41  M 0,27 C 2,26 4,25 5,27 2,31 1,29 0,27  M -5,5 C -4,7 -14,12 -16,8 -15,5 -9,2 -5,5  M 88,-26 C 85,-28 86,-26 85,-23 90,-22 91,-25 88,-26  M 8,6 C 13,11 9,8 10,10 5,10 7,9 8,6  M 14,-2 C 17,-1 17,4 21,3 23,7 14,3 14,-2"/>
  </g>
  <ellipse class="rot_sun" cx="0" cy="0" rx="63.78" ry="63.78" fill="url(#gradient_shade)"/>
 </g>
<g id="main">
<g id="vab" class="active">
<switch>
<a systemLanguage="es" target="info" xlink:href="http://es.wikipedia.org/wiki/Cinturones_de_Van_Allen">
<text x="-6" y="-117" fill="#cc6600"><tspan>Cinturón   de Van</tspan><tspan x="10" y="-94">Allen   interior</tspan></text>
<text x="100" y="358" fill="#9999cc"><tspan>Cinturón de Van</tspan><tspan x="100" y="380">Allen exterior</tspan></text>
</a>
<a systemLanguage="fr" target="info" xlink:href="https://fr.wikipedia.org/wiki/Ceinture_de_Van_Allen">
<text x="-6" y="-117" fill="#cc6600"><tspan>Ceinture de Van</tspan><tspan x="10" y="-94">Allen intérieure</tspan></text>
<text x="100" y="358" fill="#9999cc"><tspan>Ceinture de Van</tspan><tspan x="100" y="380">Allen extérieure</tspan></text>
</a>
<a target="info" xlink:href="http://wikipedia.org/wiki/Van_Allen_radiation_belt">
<text x="-6" y="-109" fill="#cc6600"><tspan>Inner   Van</tspan><tspan x="-6" y="-86">Allen   belt</tspan></text>
<text x="80" y="358" fill="#9999cc"><tspan>Outer Van</tspan><tspan x="80" y="380">Allen belt</tspan></text>
</a>
</switch>
</g>
<g id="grave" class="active" stroke="#cc9999" fill="#cc9999">
<g class="rot_gra"/>
<switch>
<a systemLanguage="es" target="info" xlink:href="http://es.wikipedia.org/wiki/%C3%93rbita_cementerio">
<text x="110" y="-390" text-anchor="start" stroke="none"><tspan>Órbita cementerio</tspan><tspan x="230" y="-360" font-size="28">(GEO+300 km)</tspan></text>
</a>
<a systemLanguage="fr" target="info" xlink:href="https://fr.wikipedia.org/wiki/Orbite_de_rebut">
<text x="110" y="-390" text-anchor="start" stroke="none"><tspan>Orbite de rebut</tspan><tspan x="230" y="-360" font-size="28">(GEO+300 km)</tspan></text>
</a>
<a target="info" xlink:href="http://wikipedia.org/wiki/Graveyard_orbit">
<text x="150" y="-400" text-anchor="start" stroke="none"><tspan>Graveyard orbit</tspan><tspan x="230" y="-366" font-size="28">(GEO+300 km)</tspan></text>
</a>
</switch>
</g>
<g id="geo" class="active" stroke="#666666" fill="#666666">
<g class="rot_geo"/>
<switch>
<a systemLanguage="es" target="info" xlink:href="http://es.wikipedia.org/wiki/%C3%93rbita_geoestacionaria">
<text x="-215" y="-395" text-anchor="end" stroke="none"><tspan>Órbita Geo-</tspan><tspan x="-210" y="-365">estacionaria</tspan></text>
</a>
<a systemLanguage="fr" target="info" xlink:href="https://fr.wikipedia.org/wiki/Orbite_g%C3%A9ostationnaire">
<text x="-215" y="-395" text-anchor="end" stroke="none"><tspan>Orbite géo-</tspan><tspan x="-210" y="-365">stationnaire</tspan></text>
</a>
<a target="info" xlink:href="http://wikipedia.org/wiki/Geostationary_orbit">
<text x="-177" y="-400" text-anchor="end" stroke="none"><tspan>Geostationary</tspan><tspan x="-225" y="-366">Earth orbit</tspan></text>
</a>
</switch>
</g>
<g id="galileo" class="active" stroke="#009999" fill="#009999">
<g class="rot_gal"/>
<switch>
<a systemLanguage="es" target="info" xlink:href="http://es.wikipedia.org/wiki/Galileo_(navegaci%C3%B3n_por_sat%C3%A9lite)">
<text x="-145" y="-296" stroke="none">Galileo</text>
</a>
<a systemLanguage="fr" target="info" xlink:href="https://fr.wikipedia.org/wiki/Galileo_(syst%C3%A8me_de_positionnement)">
<text x="-145" y="-296" stroke="none">Galileo</text>
</a>
<a target="info" xlink:href="http://wikipedia.org/wiki/Galileo_(satellite_navigation)">
<text x="-145" y="-296" stroke="none">Galileo</text>
</a>
</switch>
</g>
<g id="compass" class="active" stroke="#cc9900" fill="#cc9900">
<g class="rot_com"/>
<switch>
<a systemLanguage="es" target="info" xlink:href="http://es.wikipedia.org/wiki/Beidou">
<text x="215" y="-295" text-anchor="start" stroke="none"><tspan>COMPASS</tspan><tspan x="217" y="-270" font-size="28">Satélites MEO</tspan></text>
</a>
<a systemLanguage="fr" target="info" xlink:href="https://fr.wikipedia.org/wiki/Beidou">
<text x="215" y="-295" text-anchor="start" stroke="none"><tspan>COMPASS</tspan><tspan x="217" y="-270" font-size="28">Satellites MEO</tspan></text>
</a>
<a target="info" xlink:href="http://wikipedia.org/wiki/Compass_navigation_system">
<text x="215" y="-295" text-anchor="start" stroke="none"><tspan>COMPASS</tspan><tspan x="217" y="-270" font-size="28">MEO satellites</tspan></text>
</a>
</switch>
</g>
<g id="gps" class="active" stroke="#0000ff" fill="#0000ff">
<g class="rot_gps"/>
<switch>
<a systemLanguage="es" target="info" xlink:href="http://es.wikipedia.org/wiki/GPS">
<text x="-145" y="-261" stroke="none">GPS</text>
</a>
<a systemLanguage="fr" target="info" xlink:href="https://fr.wikipedia.org/wiki/GPS_(assistant_de_navigation)">
<text x="-145" y="-261" stroke="none">GPS</text>
</a>
<a target="info" xlink:href="http://wikipedia.org/wiki/Global_Positioning_System">
<text x="-145" y="-261" stroke="none">GPS</text>
</a>
</switch>
</g>
<g id="glonass" class="active" stroke="#ff0000" fill="#ff0000">
<g class="rot_glo"/>
<switch>
<a systemLanguage="es" target="info" xlink:href="http://es.wikipedia.org/wiki/GLONASS">
<text x="215" y="-228" stroke="none" text-anchor="start">GLONASS</text>
</a>
<a systemLanguage="fr" target="info" xlink:href="http://fr.wikipedia.org/wiki/GLONASS">
<text x="215" y="-228" stroke="none" text-anchor="start">GLONASS</text>
</a>
<a target="info" xlink:href="http://wikipedia.org/wiki/GLONASS">
<text x="215" y="-228" stroke="none" text-anchor="start">GLONASS</text>
</a>
</switch>
</g>
<g id="iridium" class="active" stroke="#660099" fill="#660099">
<g class="rot_iri"/>
<switch>
<a systemLanguage="es" target="info" xlink:href="http://es.wikipedia.org/wiki/Iridium">
<text x="-80" y="-71.8" stroke="none">Iridium</text>
</a>
<a systemLanguage="fr" target="info" xlink:href="https://fr.wikipedia.org/wiki/Iridium_(t%C3%A9l%C3%A9phonie_par_satellite)">
<text x="-80" y="-71.8" stroke="none">Iridium</text>
</a>
<a target="info" xlink:href="http://wikipedia.org/wiki/Iridium_satellite_constellation">
<text x="-80" y="-71.8" stroke="none">Iridium</text>
</a>
</switch>
</g>
<g id="iss" class="active" stroke="#ff00cc" fill="#ff00cc">
<g class="rot_iss"/>
<switch>
<a systemLanguage="es" target="info" xlink:href="http://es.wikipedia.org/wiki/Estaci%C3%B3n_Espacial_Internacional">
<text x="80" y="67.5" stroke="none" text-anchor="start">ISS</text>
</a>
<a systemLanguage="fr" target="info" xlink:href="https://fr.wikipedia.org/wiki/Station_spatiale_internationale">
<text x="80" y="67.5" stroke="none" text-anchor="start">ISS</text>
</a>
<a target="info" xlink:href="http://wikipedia.org/wiki/International_Space_Station">
<text x="80" y="67.5" stroke="none" text-anchor="start">ISS</text>
</a>
</switch>
</g>
<g id="hst" class="active" stroke="#00cc00" fill="#00cc00">
<g class="rot_hub"/>
<switch>
<a systemLanguage="es" target="info" xlink:href="http://es.wikipedia.org/wiki/Telescopio_espacial_Hubble">
<text x="80" y="-69.4" stroke="none" text-anchor="start">Hubble</text>
</a>
<a systemLanguage="fr" target="info" xlink:href="https://fr.wikipedia.org/wiki/Hubble_(t%C3%A9lescope_spatial)">
<text x="80" y="-69.4" stroke="none" text-anchor="start">Hubble</text>
</a>
<a target="info" xlink:href="http://wikipedia.org/wiki/Hubble_Space_Telescope">
<text x="80" y="-69.4" stroke="none" text-anchor="start">Hubble</text>
</a>
</switch>
</g>
<g class="nofade" font-size="24" text-anchor="middle" stroke="#000000" stroke-width="1" fill="#000000">
<switch>
<text systemLanguage="es" x="-390" y="-95" font-weight="bold" text-anchor="start" stroke="none"><tspan>Radio de</tspan><tspan x="-390" y="-70">la órbita</tspan></text>
<text systemLanguage="fr" x="-390" y="-95" font-weight="bold" text-anchor="start" stroke="none"><tspan>Rayon de</tspan><tspan x="-390" y="-70">l'orbite</tspan></text>
<text x="-390" y="-90" font-weight="bold" text-anchor="start" stroke="none"><tspan>Radius</tspan><tspan x="-390" y="-70">of orbit</tspan></text>
</switch>
<text x="-115" y="-35" stroke="none">10000 km</text>
<text x="-215" y="-35" stroke="none">20000</text>
<text x="-310" y="-35" stroke="none">30000</text>
<text x="-432" y="-35" text-anchor="start" stroke="none">40000</text>
<text x="-140" y="55" stroke="none">10000 miles</text>
<text x="-330" y="55" stroke="none">20000</text>
<g transform="translate(64,0)">
<switch>
<text systemLanguage="es" x="345" y="-95" font-weight="bold" text-anchor="end" stroke="none"><tspan>Altura sobre el</tspan><tspan x="345" y="-70">nivel del mar</tspan></text>
<text systemLanguage="fr" x="345" y="-70" font-weight="bold" text-anchor="end" stroke="none"><tspan>Altitude</tspan></text>
<text x="345" y="-90" font-weight="bold" text-anchor="end" stroke="none"><tspan>Height above</tspan><tspan x="345" y="-70">sea level</tspan></text>
</switch>
<text x="100" y="-35" stroke="none">10000</text>
<text x="190" y="-35" stroke="none">20000</text>
<text x="300" y="-35" stroke="none">30000 km</text>
<text x="150" y="55" stroke="none">10000</text>
<text x="300" y="55" stroke="none">20000 miles</text>
</g>
<switch>
<g systemLanguage="es">
<text x="-15" y="-340" font-weight="bold" text-anchor="end" stroke="none">Periodo orbital</text>
<text x="30" y="-139" text-anchor="start" stroke="none">5 horas</text>
<text x="30" y="-221" text-anchor="start" stroke="none">10 horas</text>
<text x="30" y="-299" text-anchor="start" stroke="none">15 horas</text>
<text x="30" y="-364" text-anchor="start" stroke="none">20 horas</text>
<text x="-15" y="350" font-weight="bold" text-anchor="end" stroke="none">Velocidad orbital</text>
</g>
<g systemLanguage="fr">
<text x="-15" y="-340" font-weight="bold" text-anchor="end" stroke="none">Période orbitale</text>
<text x="30" y="-139" text-anchor="start" stroke="none">5 heures</text>
<text x="30" y="-221" text-anchor="start" stroke="none">10 heures</text>
<text x="30" y="-299" text-anchor="start" stroke="none">15 heures</text>
<text x="30" y="-364" text-anchor="start" stroke="none">20 heures</text>
<text x="-15" y="350" font-weight="bold" text-anchor="end" stroke="none">Vitesse orbitale</text>
</g>
<g>
<text x="-15" y="-350" font-weight="bold" text-anchor="end" stroke="none">Orbital period</text>
<text x="30" y="-139" text-anchor="start" stroke="none">5 hours</text>
<text x="30" y="-221" text-anchor="start" stroke="none">10 hours</text>
<text x="30" y="-299" text-anchor="start" stroke="none">15 hours</text>
<text x="30" y="-364" text-anchor="start" stroke="none">20 hours</text>
<text x="-15" y="350" font-weight="bold" text-anchor="end" stroke="none">Orbital speed</text>
</g>
</switch>
<text x="30" y="93" text-anchor="start" stroke="none">25000 km/h</text>
<text x="30" y="139" text-anchor="start" stroke="none">20000 km/h</text>
<text x="30" y="235" text-anchor="start" stroke="none">15000 km/h</text>
<text x="15" y="430" text-anchor="start" stroke="none">11000 km/h</text>
<text x="-30" y="99" text-anchor="end" stroke="none">15000 mph</text>
<text x="-30" y="210" text-anchor="end" stroke="none">10000 mph</text>
<text x="-15" y="415" text-anchor="end" stroke="none">7000 mph</text>
<g id="clock" transform="translate(360,360) scale(-1,1)" stroke-width="2" stroke="#999999">
<use xlink:href="#tick_3"/>
<use xlink:href="#tick_3" transform="rotate(90)"/>
<use xlink:href="#tick_3" transform="rotate(180)"/>
<use xlink:href="#tick_3" transform="rotate(270)"/>
</g>
</g>
</g>
<g id="earth">
<g class="rot_geo">
</g>
</g>
</svg>
